<svg width="32" height="31" viewBox="0 0 32 31" fill="none" xmlns="http://www.w3.org/2000/svg">
<rect width="32" height="31" fill="white"/>
<ellipse cx="16" cy="15.5" rx="16" ry="15.5" fill="white"/>
<path d="M24.1667 11.2632H23.21L21.2267 5.59789C21.0625 5.13076 20.7642 4.7271 20.372 4.44138C19.9798 4.15565 19.5125 4.0016 19.0333 4H17.1667C16.525 4 16 4.54474 16 5.21053C16 5.87632 16.525 6.42105 17.1667 6.42105H19.0333L20.7367 11.2632H15.125L14.705 10.0526H14.81C15.4517 10.0526 15.9767 9.50789 15.9767 8.84211C15.9767 8.17632 15.4517 7.63158 14.81 7.63158H11.3333C10.6917 7.63158 10.1667 8.17632 10.1667 8.84211C10.1667 9.50789 10.6917 10.0526 11.3333 10.0526H12.2083L14.3317 16.1053H13.55C13.0367 13.4058 10.855 11.4084 8.125 11.2753C4.85833 11.1058 2 13.9263 2 17.3158C2 20.7053 4.56667 23.3684 7.83333 23.3684C10.7033 23.3684 13.025 21.3226 13.55 18.5263H18.45C18.9633 21.2258 21.145 23.2232 23.875 23.3563C27.1417 23.5137 30 20.7053 30 17.3037C30 13.9263 27.4333 11.2632 24.1667 11.2632ZM9 18.5263H11.1233C10.6333 20.0153 9.25667 21.0442 7.6 20.9353C5.86167 20.8263 4.415 19.3011 4.33333 17.4853C4.25167 15.3668 5.815 13.6842 7.83333 13.6842C9.385 13.6842 10.6567 14.6889 11.1233 16.1053H9C8.35833 16.1053 7.83333 16.65 7.83333 17.3158C7.83333 17.9816 8.35833 18.5263 9 18.5263ZM18.45 16.1053H16.8167L15.965 13.6842H19.5C18.9867 14.3863 18.6133 15.1974 18.45 16.1053ZM24.0267 20.9474C22.23 20.8747 20.7133 19.2889 20.6667 17.4126C20.6433 16.2505 21.1217 15.2337 21.8917 14.5558L22.615 16.6137C22.8367 17.2432 23.5017 17.57 24.1083 17.34C24.715 17.11 25.03 16.42 24.8083 15.7905L24.0733 13.6963L24.085 13.6842C24.5528 13.6677 25.0189 13.7496 25.4553 13.9252C25.8916 14.1008 26.2892 14.3663 26.6239 14.7057C26.9587 15.0451 27.2237 15.4513 27.4029 15.8999C27.5821 16.3486 27.6718 16.8302 27.6667 17.3158C27.6667 19.3979 26.0567 21.02 24.0267 20.9474Z" fill="url(#paint0_linear_110_214)"/>
<defs>
<linearGradient id="paint0_linear_110_214" x1="16" y1="4" x2="16" y2="27" gradientUnits="userSpaceOnUse">
<stop offset="0.546875" stop-color="#F2AD18"/>
<stop offset="1" stop-color="#BF8000"/>
</linearGradient>
</defs>
</svg>
