<svg xmlns="http://www.w3.org/2000/svg" width="136" height="32" fill="none"><path fill="#fff" d="M5.133 12.534c.66-1.075 1.564-1.948 2.713-2.62 1.173-.671 2.505-1.007 3.996-1.007 1.735 0 3.3.47 4.693 1.41 1.417.94 2.53 2.284 3.336 4.03.831 1.72 1.247 3.722 1.247 6.006 0 2.283-.416 4.312-1.247 6.085-.807 1.747-1.919 3.104-3.336 4.07-1.393.968-2.958 1.452-4.693 1.452-1.515 0-2.848-.323-3.996-.968a8.22 8.22 0 0 1-2.713-2.579v3.184H0V1.773h5.133v10.761Zm10.742 7.819c0-1.344-.257-2.5-.77-3.466-.489-.995-1.149-1.747-1.98-2.257a4.84 4.84 0 0 0-2.64-.766c-.928 0-1.808.269-2.64.806-.806.51-1.466 1.263-1.979 2.257-.489.994-.733 2.163-.733 3.506 0 1.344.244 2.512.733 3.506.513.995 1.173 1.76 1.98 2.298.83.51 1.71.766 2.64.766.953 0 1.832-.27 2.64-.806.83-.538 1.49-1.304 1.979-2.298.513-.994.77-2.176.77-3.546ZM27.45 6.61c-.904 0-1.662-.31-2.273-.927-.587-.645-.88-1.438-.88-2.378 0-.94.293-1.72.88-2.338C25.787.322 26.546 0 27.45 0c.904 0 1.65.322 2.236.967.611.618.917 1.397.917 2.338 0 .94-.306 1.733-.917 2.378-.586.618-1.332.927-2.236.927Zm2.53 2.66v22.327h-5.133V9.27h5.133Zm17.097 22.327-6.893-9.511v9.511h-5.133V1.773h5.133v16.968l6.82-9.471h6.672L44.73 20.474l9.019 11.123h-6.672Zm7.046-11.164c0-2.31.428-4.325 1.283-6.045.855-1.746 2.04-3.09 3.556-4.03 1.516-.968 3.25-1.451 5.206-1.451 2.518 0 4.595.698 6.233 2.095 1.662 1.37 2.774 3.305 3.336 5.804h-5.535c-.293-.967-.794-1.72-1.503-2.257-.684-.564-1.54-.846-2.566-.846-1.467 0-2.628.59-3.483 1.773-.856 1.155-1.283 2.808-1.283 4.957 0 2.123.427 3.775 1.283 4.957.855 1.156 2.016 1.733 3.483 1.733 2.077 0 3.434-1.02 4.07-3.063h5.535c-.562 2.419-1.674 4.34-3.336 5.764-1.662 1.424-3.74 2.136-6.233 2.136-1.955 0-3.69-.47-5.206-1.41-1.503-.954-2.735-2.35-3.556-4.031-.855-1.746-1.284-3.775-1.284-6.086Zm27.49-7.697a7.65 7.65 0 0 1 2.566-2.781c1.075-.672 2.297-1.008 3.666-1.008v5.925h-1.356c-1.614 0-2.836.416-3.667 1.249-.806.833-1.21 2.284-1.21 4.353v11.123H76.48V9.27h5.132v3.466Zm21.97 15.677c-.562 1.021-1.478 1.88-2.749 2.58A8.658 8.658 0 0 1 96.728 32c-1.271 0-2.42-.282-3.447-.846a6.253 6.253 0 0 1-2.42-2.338c-.586-.994-.88-2.136-.88-3.426 0-2.068.697-3.761 2.09-5.078 1.418-1.316 3.532-1.975 6.343-1.975h5.169c-.049-1.424-.427-2.552-1.136-3.385-.685-.86-1.638-1.29-2.86-1.29-1.075 0-1.967.323-2.676.968-.709.618-1.161 1.49-1.357 2.62h-5.132c.244-1.613.77-3.05 1.576-4.313.824-1.283 1.935-2.31 3.226-2.982 1.345-.726 2.848-1.088 4.51-1.088 1.711 0 3.251.39 4.619 1.168 1.36.745 2.493 1.907 3.263 3.345.782 1.451 1.173 3.157 1.173 5.119v13.098h-5.206v-3.184Zm-5.352-.967c.855 0 1.686-.202 2.493-.605a5.134 5.134 0 0 0 2.053-1.813c.537-.806.806-1.76.806-2.862v-.161h-4.876c-1.173 0-2.053.255-2.64.766-.562.51-.843 1.182-.843 2.015 0 .806.257 1.45.77 1.934.538.484 1.283.726 2.237.726Zm21.383-13.542v17.693h-5.206V13.904h-2.31V9.27h2.31V8.14c0-2.74.709-4.756 2.126-6.045 1.418-1.29 3.557-1.894 6.416-1.814v4.756c-1.246-.027-2.114.201-2.603.685-.489.484-.733 1.357-.733 2.62v.927h6.67V3.748h5.17V9.27H136v4.634h-4.546v10.801c0 .753.159 1.303.476 1.653.343.322.905.483 1.687.483H136v4.756h-3.226c-4.326 0-6.49-2.31-6.49-6.932v-10.76h-6.67Z"/></svg>