<svg xmlns="http://www.w3.org/2000/svg" width="57" height="57" fill="none"><path fill="gray" fill-opacity=".3" d="M5 54.5a2.5 2.5 0 1 0-5 0 2.5 2.5 0 0 0 5 0ZM18 54.5a2.5 2.5 0 1 0-5 0 2.5 2.5 0 0 0 5 0ZM31 54.5a2.5 2.5 0 1 0-5 0 2.5 2.5 0 0 0 5 0ZM44 54.5a2.5 2.5 0 1 0-5 0 2.5 2.5 0 0 0 5 0ZM57 54.5a2.5 2.5 0 1 0-5 0 2.5 2.5 0 0 0 5 0ZM5 41.5a2.5 2.5 0 1 0-5 0 2.5 2.5 0 0 0 5 0ZM18 41.5a2.5 2.5 0 1 0-5 0 2.5 2.5 0 0 0 5 0ZM31 41.5a2.5 2.5 0 1 0-5 0 2.5 2.5 0 0 0 5 0ZM44 41.5a2.5 2.5 0 1 0-5 0 2.5 2.5 0 0 0 5 0ZM57 41.5a2.5 2.5 0 1 0-5 0 2.5 2.5 0 0 0 5 0ZM5 28.5a2.5 2.5 0 1 0-5 0 2.5 2.5 0 0 0 5 0ZM18 28.5a2.5 2.5 0 1 0-5 0 2.5 2.5 0 0 0 5 0ZM31 28.5a2.5 2.5 0 1 0-5 0 2.5 2.5 0 0 0 5 0ZM44 28.5a2.5 2.5 0 1 0-5 0 2.5 2.5 0 0 0 5 0ZM5 15.5a2.5 2.5 0 1 0-5 0 2.5 2.5 0 0 0 5 0ZM18 15.5a2.5 2.5 0 1 0-5 0 2.5 2.5 0 0 0 5 0ZM31 15.5a2.5 2.5 0 1 0-5 0 2.5 2.5 0 0 0 5 0ZM44 15.5a2.5 2.5 0 1 0-5 0 2.5 2.5 0 0 0 5 0ZM5 2.5a2.5 2.5 0 1 0-5 0 2.5 2.5 0 0 0 5 0ZM18 2.5a2.5 2.5 0 1 0-5 0 2.5 2.5 0 0 0 5 0Z"/></svg>