<svg xmlns="http://www.w3.org/2000/svg" width="57" height="57" fill="none"><path fill="gray" fill-opacity=".3" d="M52 54.5a2.5 2.5 0 1 1 5 0 2.5 2.5 0 0 1-5 0ZM39 54.5a2.5 2.5 0 1 1 5 0 2.5 2.5 0 0 1-5 0ZM26 54.5a2.5 2.5 0 1 1 5 0 2.5 2.5 0 0 1-5 0ZM13 54.5a2.5 2.5 0 1 1 5 0 2.5 2.5 0 0 1-5 0ZM0 54.5a2.5 2.5 0 1 1 5 0 2.5 2.5 0 0 1-5 0ZM52 41.5a2.5 2.5 0 1 1 5 0 2.5 2.5 0 0 1-5 0ZM39 41.5a2.5 2.5 0 1 1 5 0 2.5 2.5 0 0 1-5 0ZM26 41.5a2.5 2.5 0 1 1 5 0 2.5 2.5 0 0 1-5 0ZM13 41.5a2.5 2.5 0 1 1 5 0 2.5 2.5 0 0 1-5 0ZM0 41.5a2.5 2.5 0 1 1 5 0 2.5 2.5 0 0 1-5 0ZM52 28.5a2.5 2.5 0 1 1 5 0 2.5 2.5 0 0 1-5 0ZM39 28.5a2.5 2.5 0 1 1 5 0 2.5 2.5 0 0 1-5 0ZM26 28.5a2.5 2.5 0 1 1 5 0 2.5 2.5 0 0 1-5 0ZM13 28.5a2.5 2.5 0 1 1 5 0 2.5 2.5 0 0 1-5 0ZM52 15.5a2.5 2.5 0 1 1 5 0 2.5 2.5 0 0 1-5 0ZM39 15.5a2.5 2.5 0 1 1 5 0 2.5 2.5 0 0 1-5 0ZM26 15.5a2.5 2.5 0 1 1 5 0 2.5 2.5 0 0 1-5 0ZM13 15.5a2.5 2.5 0 1 1 5 0 2.5 2.5 0 0 1-5 0ZM52 2.5a2.5 2.5 0 1 1 5 0 2.5 2.5 0 0 1-5 0ZM39 2.5a2.5 2.5 0 1 1 5 0 2.5 2.5 0 0 1-5 0Z"/></svg>